# xmcd
# Track frame offsets:
# 150
# 11032
# 23297
# 36395
# 53540
# 66920
# 86365
# 107050
# 123480
# 136290
# 147940
# 158930
# 173027
# 187682
# 202255
# 219777
# 237560
# 250097
# 268187
# 279312
# 291937
# 303000
#
# Disc length: 4107 seconds
# Revision: 8
# Processed by: cddbd v1.5.2PL0 Copyright (c) Steve Scherf et al.
# Submitted via: VisiTrax 2.11.3.279 - For more info visit www.synapsa.com
#
DISCID=34100916
DTITLE=Johnny Cash - Sings The Ballads Of The True West
DYEAR=1965
DGENRE=Folk
TTITLE0=Hiawatha's Vision
TTITLE1=The Road To Kaintuck
TTITLE2=The Shifting, Whispering Sands Part I
TTITLE3=The Ballad Of Boot Hill
TTITLE4=I Ride An Old Paint
TTITLE5=Hardin Wouldn't Run
TTITLE6=Mister Garfield
TTITLE7=The Streets Of Laredo
TTITLE8=Johnny Reb
TTITLE9=A Letter From Home
TTITLE10=Bury Me Not On The Lone Prairie
TTITLE11=Mean As Hell
TTITLE12=Sam Hall
TTITLE13=25 Minutes To Go
TTITLE14=The Blizzard
TTITLE15=Sweet Betsy From Pike
TTITLE16=Green Grow The Lilacs
TTITLE17=Stampede
TTITLE18=The Shifting, Whispering Sands Part II
TTITLE19=Reflections
TTITLE20=Rodeo Hand [Bonus Track] [*]
TTITLE21=Stampede [Alternative Instrumental] [Bonus Track] [*]
EXTD=Sony Music Entertainment Inc.
EXTT0=
EXTT1=
EXTT2=
EXTT3=
EXTT4=
EXTT5=
EXTT6=
EXTT7=
EXTT8=
EXTT9=
EXTT10=
EXTT11=
EXTT12=
EXTT13=
EXTT14=
EXTT15=
EXTT16=
EXTT17=
EXTT18=
EXTT19=
EXTT20=
EXTT21=
PLAYORDER=
